<svg xmlns="http://www.w3.org/2000/svg" xmlns:xlink="http://www.w3.org/1999/xlink" width="2000" zoomAndPan="magnify" viewBox="0 0 1500 374.999991" height="500" preserveAspectRatio="xMidYMid meet" version="1.0"><defs><g/><clipPath id="188a4e36ba"><path d="M 269.460938 37.5 L 459.335938 37.5 L 459.335938 305.855469 L 269.460938 305.855469 Z M 269.460938 37.5 " clip-rule="nonzero"/></clipPath><clipPath id="ba81d49da7"><path d="M 0.460938 0.5 L 190.335938 0.5 L 190.335938 268.855469 L 0.460938 268.855469 Z M 0.460938 0.5 " clip-rule="nonzero"/></clipPath><clipPath id="567dde611a"><rect x="0" width="191" y="0" height="269"/></clipPath><clipPath id="90c74507d0"><path d="M 237.816406 69.144531 L 427.6875 69.144531 L 427.6875 337.5 L 237.816406 337.5 Z M 237.816406 69.144531 " clip-rule="nonzero"/></clipPath><clipPath id="b1018d92ab"><path d="M 0.816406 0.144531 L 190.6875 0.144531 L 190.6875 268.5 L 0.816406 268.5 Z M 0.816406 0.144531 " clip-rule="nonzero"/></clipPath><clipPath id="a68a7034ce"><rect x="0" width="191" y="0" height="269"/></clipPath></defs><g clip-path="url(#188a4e36ba)"><g transform="matrix(1, 0, 0, 1, 269, 37)"><g clip-path="url(#567dde611a)"><g clip-path="url(#ba81d49da7)"><path fill="#8fb3dc" d="M 0.460938 0.5 L 190.335938 0.5 L 190.335938 268.992188 L 0.460938 268.992188 Z M 0.460938 0.5 " fill-opacity="1" fill-rule="nonzero"/></g></g></g></g><g clip-path="url(#90c74507d0)"><g transform="matrix(1, 0, 0, 1, 237, 69)"><g clip-path="url(#a68a7034ce)"><g clip-path="url(#b1018d92ab)"><path fill="#2e5f9e" d="M 0.816406 0.144531 L 190.6875 0.144531 L 190.6875 268.636719 L 0.816406 268.636719 Z M 0.816406 0.144531 " fill-opacity="1" fill-rule="nonzero"/></g></g></g></g><g fill="#1f2937" fill-opacity="1"><g transform="translate(459.334068, 161.249989)"><g><path d="M 44.40625 4.5625 L 44.40625 -93.953125 L 62.515625 -93.953125 L 62.515625 -57.359375 L 68.28125 -65.640625 C 70.195312 -64.273438 72.773438 -62.53125 76.015625 -60.40625 C 79.253906 -58.289062 82.734375 -56.132812 86.453125 -53.9375 C 90.179688 -51.738281 93.742188 -49.71875 97.140625 -47.875 C 100.535156 -46.039062 103.351562 -44.722656 105.59375 -43.921875 C 104.320312 -42.722656 102.941406 -41.125 101.453125 -39.125 C 99.972656 -37.125 98.59375 -35.082031 97.3125 -33 C 96.039062 -30.914062 95.003906 -29.113281 94.203125 -27.59375 C 92.441406 -28.5625 90.21875 -29.863281 87.53125 -31.5 C 84.851562 -33.132812 82.015625 -34.929688 79.015625 -36.890625 C 76.015625 -38.859375 73.070312 -40.820312 70.1875 -42.78125 C 67.3125 -44.738281 64.753906 -46.554688 62.515625 -48.234375 L 62.515625 4.5625 Z M 44.40625 4.5625 "/></g></g></g><g fill="#1f2937" fill-opacity="1"><g transform="translate(579.334129, 161.249989)"><g><path d="M 44.40625 4.5625 L 44.40625 -93.953125 L 62.515625 -93.953125 L 62.515625 -57.359375 L 68.28125 -65.640625 C 70.195312 -64.273438 72.773438 -62.53125 76.015625 -60.40625 C 79.253906 -58.289062 82.734375 -56.132812 86.453125 -53.9375 C 90.179688 -51.738281 93.742188 -49.71875 97.140625 -47.875 C 100.535156 -46.039062 103.351562 -44.722656 105.59375 -43.921875 C 104.320312 -42.722656 102.925781 -41.140625 101.40625 -39.171875 C 99.882812 -37.210938 98.484375 -35.191406 97.203125 -33.109375 C 95.921875 -31.035156 94.921875 -29.195312 94.203125 -27.59375 C 92.441406 -28.5625 90.21875 -29.863281 87.53125 -31.5 C 84.851562 -33.132812 82.015625 -34.929688 79.015625 -36.890625 C 76.015625 -38.859375 73.070312 -40.820312 70.1875 -42.78125 C 67.3125 -44.738281 64.753906 -46.554688 62.515625 -48.234375 L 62.515625 4.5625 Z M 92.28125 -67.921875 C 90.84375 -70.484375 89.019531 -73.144531 86.8125 -75.90625 C 84.613281 -78.664062 82.597656 -80.925781 80.765625 -82.6875 L 88.6875 -88.6875 C 89.71875 -87.71875 91.015625 -86.3125 92.578125 -84.46875 C 94.140625 -82.632812 95.660156 -80.773438 97.140625 -78.890625 C 98.617188 -77.015625 99.757812 -75.398438 100.5625 -74.046875 Z M 104.046875 -76.921875 C 102.597656 -79.484375 100.773438 -82.125 98.578125 -84.84375 C 96.378906 -87.5625 94.359375 -89.800781 92.515625 -91.5625 L 100.4375 -97.5625 C 101.476562 -96.601562 102.78125 -95.222656 104.34375 -93.421875 C 105.90625 -91.617188 107.425781 -89.773438 108.90625 -87.890625 C 110.382812 -86.015625 111.519531 -84.398438 112.3125 -83.046875 Z M 104.046875 -76.921875 "/></g></g></g><g fill="#1f2937" fill-opacity="1"><g transform="translate(699.33419, 161.249989)"><g><path d="M 44.640625 7.078125 C 42.960938 4.597656 40.863281 2 38.34375 -0.71875 C 35.820312 -3.4375 33.320312 -5.554688 30.84375 -7.078125 C 40.4375 -12.273438 47.832031 -18.59375 53.03125 -26.03125 C 58.238281 -33.476562 61.363281 -42.160156 62.40625 -52.078125 L 41.765625 -52.078125 C 38.960938 -48.640625 35.957031 -45.421875 32.75 -42.421875 C 29.550781 -39.421875 26.195312 -36.71875 22.6875 -34.3125 C 21.082031 -36.238281 19 -38.398438 16.4375 -40.796875 C 13.875 -43.203125 11.351562 -45.125 8.875 -46.5625 C 14.800781 -50.476562 20.101562 -55.132812 24.78125 -60.53125 C 29.457031 -65.9375 33.4375 -71.738281 36.71875 -77.9375 C 40 -84.132812 42.519531 -90.316406 44.28125 -96.484375 L 62.28125 -91.203125 C 59.957031 -83.441406 56.957031 -76.203125 53.28125 -69.484375 L 109.3125 -69.484375 L 109.3125 -52.078125 L 81.125 -52.078125 C 80.082031 -39.203125 76.519531 -27.941406 70.4375 -18.296875 C 64.351562 -8.660156 55.753906 -0.203125 44.640625 7.078125 Z M 44.640625 7.078125 "/></g></g></g><g fill="#1f2937" fill-opacity="1"><g transform="translate(819.334251, 161.249989)"><g><path d="M 32.28125 6.84375 C 31.476562 5.238281 30.394531 3.476562 29.03125 1.5625 C 27.675781 -0.351562 26.238281 -2.191406 24.71875 -3.953125 C 23.195312 -5.710938 21.757812 -7.195312 20.40625 -8.40625 C 27.4375 -11.125 33.148438 -14.222656 37.546875 -17.703125 C 41.953125 -21.179688 45.316406 -25.238281 47.640625 -29.875 C 49.960938 -34.519531 51.398438 -39.921875 51.953125 -46.078125 C 45.953125 -45.992188 40.210938 -45.890625 34.734375 -45.765625 C 29.253906 -45.648438 24.515625 -45.550781 20.515625 -45.46875 C 16.515625 -45.394531 13.675781 -45.28125 12 -45.125 L 11.046875 -62.515625 C 12.242188 -62.441406 14.722656 -62.382812 18.484375 -62.34375 C 22.242188 -62.300781 26.78125 -62.300781 32.09375 -62.34375 C 37.414062 -62.382812 43.15625 -62.421875 49.3125 -62.453125 C 55.476562 -62.492188 61.640625 -62.570312 67.796875 -62.6875 C 73.960938 -62.8125 79.742188 -62.914062 85.140625 -63 C 90.535156 -63.082031 95.113281 -63.203125 98.875 -63.359375 C 102.632812 -63.515625 105.15625 -63.632812 106.4375 -63.71875 L 106.6875 -46.3125 C 105.238281 -46.394531 102.851562 -46.4375 99.53125 -46.4375 C 96.21875 -46.4375 92.257812 -46.4375 87.65625 -46.4375 C 83.0625 -46.4375 78.125 -46.394531 72.84375 -46.3125 C 72.4375 -46.3125 72.050781 -46.3125 71.6875 -46.3125 C 71.332031 -46.3125 70.957031 -46.3125 70.5625 -46.3125 C 69.601562 -33.351562 65.984375 -22.65625 59.703125 -14.21875 C 53.421875 -5.78125 44.28125 1.238281 32.28125 6.84375 Z M 28.4375 -74.40625 L 27.359375 -91.796875 C 28.640625 -91.722656 30.816406 -91.703125 33.890625 -91.734375 C 36.972656 -91.773438 40.59375 -91.816406 44.75 -91.859375 C 48.914062 -91.898438 53.238281 -91.976562 57.71875 -92.09375 C 62.195312 -92.21875 66.492188 -92.316406 70.609375 -92.390625 C 74.734375 -92.472656 78.316406 -92.570312 81.359375 -92.6875 C 84.398438 -92.8125 86.519531 -92.914062 87.71875 -93 L 88.078125 -75.59375 C 86.722656 -75.675781 84.503906 -75.71875 81.421875 -75.71875 C 78.335938 -75.71875 74.816406 -75.695312 70.859375 -75.65625 C 66.898438 -75.613281 62.757812 -75.550781 58.4375 -75.46875 C 54.113281 -75.394531 49.929688 -75.296875 45.890625 -75.171875 C 41.859375 -75.054688 38.300781 -74.9375 35.21875 -74.8125 C 32.132812 -74.695312 29.875 -74.5625 28.4375 -74.40625 Z M 112.921875 -79.796875 C 111.554688 -82.359375 109.796875 -85.039062 107.640625 -87.84375 C 105.484375 -90.644531 103.484375 -92.925781 101.640625 -94.6875 L 109.6875 -100.5625 C 110.71875 -99.601562 111.992188 -98.203125 113.515625 -96.359375 C 115.035156 -94.515625 116.515625 -92.632812 117.953125 -90.71875 C 119.398438 -88.800781 120.519531 -87.160156 121.3125 -85.796875 Z M 101.046875 -71.15625 C 99.679688 -73.71875 97.914062 -76.378906 95.75 -79.140625 C 93.59375 -81.898438 91.597656 -84.160156 89.765625 -85.921875 L 97.796875 -91.796875 C 98.835938 -90.835938 100.117188 -89.4375 101.640625 -87.59375 C 103.160156 -85.757812 104.640625 -83.898438 106.078125 -82.015625 C 107.515625 -80.140625 108.632812 -78.519531 109.4375 -77.15625 Z M 101.046875 -71.15625 "/></g></g></g><g fill="#8fb3dc" fill-opacity="1"><g transform="translate(488.184898, 311.24998)"><g><path d="M 83.15625 9.59375 C 83.082031 8 82.863281 6.117188 82.5 3.953125 C 82.132812 1.796875 81.691406 -0.316406 81.171875 -2.390625 C 80.660156 -4.472656 80.125 -6.15625 79.5625 -7.4375 L 87 -7.4375 C 88.601562 -7.4375 89.742188 -7.675781 90.421875 -8.15625 C 91.097656 -8.632812 91.4375 -9.632812 91.4375 -11.15625 L 91.4375 -14.15625 L 61.203125 -14.15625 L 61.203125 8.515625 L 43.796875 8.515625 L 43.796875 -66.484375 L 67.4375 -66.484375 L 67.4375 -74.875 C 65.351562 -73.832031 62.953125 -72.53125 60.234375 -70.96875 C 57.515625 -69.414062 55.195312 -67.957031 53.28125 -66.59375 C 52.320312 -68.914062 51.019531 -71.65625 49.375 -74.8125 C 47.738281 -77.976562 46.078125 -81.039062 44.390625 -84 C 42.710938 -86.957031 41.234375 -89.195312 39.953125 -90.71875 L 55.4375 -98.765625 C 56.71875 -96.921875 58.097656 -94.757812 59.578125 -92.28125 C 61.054688 -89.800781 62.492188 -87.28125 63.890625 -84.71875 C 65.296875 -82.15625 66.476562 -79.796875 67.4375 -77.640625 L 67.4375 -100.203125 L 86.046875 -100.203125 L 86.046875 -76.6875 C 87.316406 -78.84375 88.648438 -81.28125 90.046875 -84 C 91.453125 -86.71875 92.796875 -89.394531 94.078125 -92.03125 C 95.359375 -94.675781 96.316406 -96.957031 96.953125 -98.875 L 113.046875 -92.046875 C 112.160156 -89.554688 110.957031 -86.734375 109.4375 -83.578125 C 107.914062 -80.421875 106.316406 -77.320312 104.640625 -74.28125 C 102.960938 -71.238281 101.398438 -68.640625 99.953125 -66.484375 L 108.59375 -66.484375 L 108.71875 -3.953125 C 108.71875 0.835938 107.316406 4.289062 104.515625 6.40625 C 101.710938 8.53125 97.515625 9.59375 91.921875 9.59375 Z M 21.953125 9.484375 L 6 -1.078125 C 8.476562 -4.515625 10.9375 -8.535156 13.375 -13.140625 C 15.820312 -17.742188 18.003906 -22.40625 19.921875 -27.125 C 21.835938 -31.84375 23.316406 -36.117188 24.359375 -39.953125 C 26.441406 -38.191406 28.921875 -36.375 31.796875 -34.5 C 34.679688 -32.625 37.203125 -31.046875 39.359375 -29.765625 C 38.160156 -25.597656 36.597656 -21.113281 34.671875 -16.3125 C 32.753906 -11.519531 30.695312 -6.882812 28.5 -2.40625 C 26.300781 2.070312 24.117188 6.035156 21.953125 9.484375 Z M 26.046875 -43.921875 C 24.679688 -45.203125 22.640625 -46.738281 19.921875 -48.53125 C 17.203125 -50.332031 14.378906 -52.09375 11.453125 -53.8125 C 8.535156 -55.539062 6 -56.84375 3.84375 -57.71875 L 12.84375 -72.84375 C 15.320312 -71.71875 17.976562 -70.394531 20.8125 -68.875 C 23.65625 -67.351562 26.414062 -65.789062 29.09375 -64.1875 C 31.78125 -62.59375 34.082031 -61.035156 36 -59.515625 C 35.195312 -58.472656 34.113281 -56.953125 32.75 -54.953125 C 31.394531 -52.953125 30.097656 -50.910156 28.859375 -48.828125 C 27.617188 -46.753906 26.679688 -45.117188 26.046875 -43.921875 Z M 31.5625 -71.765625 C 30.195312 -73.046875 28.15625 -74.582031 25.4375 -76.375 C 22.71875 -78.175781 19.894531 -79.9375 16.96875 -81.65625 C 14.050781 -83.375 11.515625 -84.675781 9.359375 -85.5625 L 18.484375 -100.3125 C 20.722656 -99.4375 23.359375 -98.15625 26.390625 -96.46875 C 29.429688 -94.789062 32.375 -93.070312 35.21875 -91.3125 C 38.0625 -89.5625 40.203125 -88.082031 41.640625 -86.875 C 40.835938 -85.914062 39.753906 -84.457031 38.390625 -82.5 C 37.035156 -80.539062 35.71875 -78.5625 34.4375 -76.5625 C 33.15625 -74.5625 32.195312 -72.960938 31.5625 -71.765625 Z M 61.203125 -27.359375 L 91.4375 -27.359375 L 91.4375 -32.640625 L 61.203125 -32.640625 Z M 61.203125 -45.953125 L 91.4375 -45.953125 L 91.4375 -51.234375 L 61.203125 -51.234375 Z M 86.046875 -66.484375 L 96.84375 -66.484375 C 95.320312 -67.597656 93.582031 -68.710938 91.625 -69.828125 C 89.664062 -70.953125 87.804688 -71.914062 86.046875 -72.71875 Z M 86.046875 -66.484375 "/></g></g></g><g fill="#8fb3dc" fill-opacity="1"><g transform="translate(617.184957, 311.24998)"><g><path d="M 47.40625 9.71875 C 45.882812 7.5625 44.039062 5.421875 41.875 3.296875 C 39.71875 1.179688 37.519531 -0.632812 35.28125 -2.15625 C 40.238281 -5.351562 44.414062 -8.710938 47.8125 -12.234375 C 51.21875 -15.753906 53.941406 -19.773438 55.984375 -24.296875 C 58.023438 -28.816406 59.484375 -34.175781 60.359375 -40.375 C 61.242188 -46.582031 61.6875 -53.960938 61.6875 -62.515625 L 61.6875 -65.15625 L 47.28125 -65.15625 L 47.28125 -74.28125 C 45.84375 -71.15625 44.441406 -68.191406 43.078125 -65.390625 C 41.722656 -62.597656 40.601562 -60.320312 39.71875 -58.5625 C 43.238281 -55.363281 45.898438 -51.660156 47.703125 -47.453125 C 49.503906 -43.253906 50.40625 -39.035156 50.40625 -34.796875 C 50.40625 -29.515625 49.484375 -25.234375 47.640625 -21.953125 C 45.796875 -18.679688 43.3125 -16.300781 40.1875 -14.8125 C 37.070312 -13.332031 33.554688 -12.59375 29.640625 -12.59375 L 27.125 -12.59375 C 26.957031 -14.675781 26.570312 -17.15625 25.96875 -20.03125 C 25.375 -22.914062 24.71875 -25.4375 24 -27.59375 L 24 9.359375 L 8.046875 9.359375 L 8.046875 -96.359375 L 48.125 -96.359375 L 54.59375 -91.3125 C 54.039062 -89.875 53.363281 -88.234375 52.5625 -86.390625 C 51.757812 -84.554688 50.921875 -82.597656 50.046875 -80.515625 L 71.515625 -80.515625 L 71.515625 -100.796875 L 89.40625 -100.796875 L 89.40625 -80.515625 L 115.078125 -80.515625 L 115.078125 -65.15625 L 79.3125 -65.15625 L 79.3125 -57.125 L 108 -57.125 L 108 -49.3125 C 108 -45.070312 107.878906 -40.332031 107.640625 -35.09375 C 107.398438 -29.851562 107.019531 -24.710938 106.5 -19.671875 C 105.976562 -14.640625 105.28125 -10.28125 104.40625 -6.59375 C 103.125 -0.832031 100.84375 3.046875 97.5625 5.046875 C 94.28125 7.046875 89.921875 8.046875 84.484375 8.046875 L 75.125 8.046875 C 75.039062 6.597656 74.835938 4.691406 74.515625 2.328125 C 74.203125 -0.0234375 73.820312 -2.34375 73.375 -4.625 C 72.9375 -6.90625 72.4375 -8.601562 71.875 -9.71875 L 81.71875 -9.71875 C 84.28125 -9.71875 86.0625 -10.097656 87.0625 -10.859375 C 88.0625 -11.617188 88.722656 -12.800781 89.046875 -14.40625 C 89.679688 -17.195312 90.238281 -21.015625 90.71875 -25.859375 C 91.195312 -30.703125 91.476562 -35.84375 91.5625 -41.28125 L 78.125 -41.28125 C 76.4375 -29.195312 73.09375 -19.09375 68.09375 -10.96875 C 63.09375 -2.851562 56.195312 4.039062 47.40625 9.71875 Z M 24 -29.40625 L 26.28125 -29.40625 C 28.84375 -29.40625 30.5625 -30.222656 31.4375 -31.859375 C 32.320312 -33.492188 32.765625 -35.953125 32.765625 -39.234375 C 32.765625 -42.273438 31.941406 -45.316406 30.296875 -48.359375 C 28.660156 -51.398438 26.5625 -54.039062 24 -56.28125 Z M 24 -60.484375 C 24.957031 -62.640625 26.015625 -65.097656 27.171875 -67.859375 C 28.335938 -70.617188 29.421875 -73.316406 30.421875 -75.953125 C 31.421875 -78.597656 32.160156 -80.757812 32.640625 -82.4375 L 24 -82.4375 Z M 24 -60.484375 "/></g></g></g><g fill="#8fb3dc" fill-opacity="1"><g transform="translate(746.185016, 311.24998)"><g><path d="M 75.84375 9.125 L 75.84375 -50.40625 L 55.203125 -50.40625 L 55.203125 -66.234375 L 75.84375 -66.234375 L 75.84375 -100.921875 L 93.84375 -100.921875 L 93.84375 -66.234375 L 116.640625 -66.234375 L 116.640625 -50.40625 L 93.84375 -50.40625 L 93.84375 9.125 Z M 10.203125 7.5625 L 10.203125 -28.6875 L 51.234375 -28.6875 L 51.234375 7.5625 Z M 5.765625 -67.3125 L 5.765625 -80.515625 L 54.953125 -80.515625 L 54.953125 -67.3125 Z M 11.640625 -84.359375 L 11.640625 -98.046875 L 49.796875 -98.046875 L 49.796875 -84.359375 Z M 11.515625 -32.875 L 11.515625 -46.203125 L 49.796875 -46.203125 L 49.796875 -32.875 Z M 11.515625 -50.046875 L 11.515625 -63.359375 L 49.796875 -63.359375 L 49.796875 -50.046875 Z M 25.796875 -5.765625 L 35.515625 -5.765625 L 35.515625 -15.359375 L 25.796875 -15.359375 Z M 25.796875 -5.765625 "/></g></g></g><g fill="#8fb3dc" fill-opacity="1"><g transform="translate(875.185053, 311.24998)"><g><path d="M 29.40625 -15.59375 L 29.40625 -74.515625 L 50.875 -74.515625 L 50.875 -82.4375 L 5.28125 -82.4375 L 5.28125 -97.203125 L 115.3125 -97.203125 L 115.3125 -82.4375 L 67.4375 -82.4375 L 67.4375 -74.515625 L 89.765625 -74.515625 L 89.765625 -15.59375 Z M 7.921875 5.15625 L 7.921875 -72.59375 L 24.59375 -72.59375 L 24.59375 -9.59375 L 94.6875 -9.59375 L 94.6875 -72.71875 L 111.59375 -72.71875 L 111.59375 5.15625 Z M 67.4375 -29.40625 L 74.640625 -29.40625 L 74.640625 -38.765625 L 67.4375 -38.765625 Z M 67.4375 -51.953125 L 74.640625 -51.953125 L 74.640625 -60.484375 L 67.4375 -60.484375 Z M 44.515625 -29.40625 L 50.875 -29.40625 L 50.875 -38.765625 L 44.515625 -38.765625 Z M 44.515625 -51.953125 L 50.875 -51.953125 L 50.875 -60.484375 L 44.515625 -60.484375 Z M 44.515625 -51.953125 "/></g></g></g><g fill="#8fb3dc" fill-opacity="1"><g transform="translate(1004.185134, 311.24998)"><g><path d="M 21 8.765625 L 21 -48.59375 C 19.71875 -46.914062 18.414062 -45.359375 17.09375 -43.921875 C 15.78125 -42.484375 14.484375 -41.160156 13.203125 -39.953125 C 11.597656 -41.796875 9.554688 -43.71875 7.078125 -45.71875 C 4.597656 -47.71875 2.316406 -49.359375 0.234375 -50.640625 C 2.398438 -52.316406 4.722656 -54.710938 7.203125 -57.828125 C 9.679688 -60.953125 12.140625 -64.414062 14.578125 -68.21875 C 17.015625 -72.019531 19.3125 -75.898438 21.46875 -79.859375 C 23.632812 -83.816406 25.476562 -87.554688 27 -91.078125 C 28.519531 -94.597656 29.5625 -97.554688 30.125 -99.953125 L 46.203125 -94.4375 C 44.523438 -88.757812 42.003906 -82.640625 38.640625 -76.078125 L 38.640625 -57.84375 C 40.960938 -60.71875 43.257812 -64.054688 45.53125 -67.859375 C 47.8125 -71.660156 49.929688 -75.582031 51.890625 -79.625 C 53.859375 -83.664062 55.539062 -87.5625 56.9375 -91.3125 C 58.34375 -95.070312 59.320312 -98.351562 59.875 -101.15625 L 76.203125 -96.359375 C 75.003906 -91.722656 73.363281 -86.882812 71.28125 -81.84375 L 114.234375 -81.84375 L 114.234375 -65.515625 L 83.640625 -65.515625 L 83.640625 -55.3125 L 110.28125 -55.3125 L 110.28125 -39.84375 L 83.640625 -39.84375 L 83.640625 -29.765625 L 110.28125 -29.765625 L 110.28125 -13.4375 L 83.640625 -13.4375 L 83.640625 8.40625 L 66 8.40625 L 66 -65.515625 L 63.484375 -65.515625 C 61.003906 -61.117188 58.382812 -56.976562 55.625 -53.09375 C 52.863281 -49.21875 50.082031 -45.878906 47.28125 -43.078125 C 46.238281 -44.203125 44.957031 -45.363281 43.4375 -46.5625 C 41.914062 -47.757812 40.316406 -48.878906 38.640625 -49.921875 L 38.640625 8.765625 Z M 21 8.765625 "/></g></g></g><g fill="#8fb3dc" fill-opacity="1"><g transform="translate(1133.185216, 311.24998)"><g><path d="M 55.078125 9.359375 C 53.796875 7.117188 52.273438 4.796875 50.515625 2.390625 C 48.753906 -0.00390625 46.957031 -2.082031 45.125 -3.84375 C 50.238281 -6.40625 54.875 -9.222656 59.03125 -12.296875 C 63.195312 -15.378906 66.957031 -18.757812 70.3125 -22.4375 C 67.59375 -28.113281 65.289062 -34.53125 63.40625 -41.6875 C 61.53125 -48.851562 60.078125 -57.035156 59.046875 -66.234375 L 30.125 -66.234375 L 30.125 -63 C 30.125 -61.957031 30.101562 -60.894531 30.0625 -59.8125 C 30.019531 -58.738281 30 -57.640625 30 -56.515625 L 58.203125 -56.515625 C 58.203125 -52.117188 58.097656 -47.640625 57.890625 -43.078125 C 57.691406 -38.515625 57.429688 -34.253906 57.109375 -30.296875 C 56.796875 -26.335938 56.359375 -23.039062 55.796875 -20.40625 C 54.679688 -14.71875 52.421875 -10.710938 49.015625 -8.390625 C 45.617188 -6.078125 41.039062 -4.921875 35.28125 -4.921875 L 29.765625 -4.921875 C 29.597656 -6.765625 29.253906 -9.1875 28.734375 -12.1875 C 28.210938 -15.1875 27.632812 -17.765625 27 -19.921875 C 25.957031 -14.722656 24.578125 -9.960938 22.859375 -5.640625 C 21.140625 -1.316406 19 2.84375 16.4375 6.84375 C 14.195312 5.15625 11.597656 3.613281 8.640625 2.21875 C 5.679688 0.820312 2.878906 -0.316406 0.234375 -1.203125 C 3.035156 -5.441406 5.253906 -9.660156 6.890625 -13.859375 C 8.535156 -18.054688 9.773438 -22.492188 10.609375 -27.171875 C 11.453125 -31.859375 12.015625 -37.097656 12.296875 -42.890625 C 12.578125 -48.691406 12.71875 -55.316406 12.71875 -62.765625 L 12.71875 -81.84375 L 57.71875 -81.84375 C 57.476562 -87.757812 57.359375 -94.078125 57.359375 -100.796875 L 74.875 -100.796875 C 74.875 -97.515625 74.914062 -94.296875 75 -91.140625 C 75.082031 -87.984375 75.203125 -84.882812 75.359375 -81.84375 L 89.046875 -81.84375 C 85.441406 -85.519531 81.957031 -88.554688 78.59375 -90.953125 L 89.515625 -101.765625 C 92.234375 -100.003906 95.132812 -97.703125 98.21875 -94.859375 C 101.300781 -92.015625 103.921875 -89.351562 106.078125 -86.875 C 105.273438 -86.238281 104.375 -85.476562 103.375 -84.59375 C 102.375 -83.71875 101.351562 -82.800781 100.3125 -81.84375 L 112.921875 -81.84375 L 112.921875 -66.234375 L 76.5625 -66.234375 C 77.125 -61.359375 77.863281 -56.679688 78.78125 -52.203125 C 79.695312 -47.722656 80.835938 -43.484375 82.203125 -39.484375 C 84.035156 -43.078125 85.648438 -46.8125 87.046875 -50.6875 C 88.453125 -54.570312 89.675781 -58.597656 90.71875 -62.765625 L 106.921875 -57.84375 C 105.242188 -51.195312 103.125 -44.851562 100.5625 -38.8125 C 98 -32.78125 94.957031 -27.160156 91.4375 -21.953125 C 94.238281 -18.441406 97.398438 -15.441406 100.921875 -12.953125 C 101.484375 -14.796875 101.941406 -16.675781 102.296875 -18.59375 C 102.660156 -20.519531 102.960938 -22.242188 103.203125 -23.765625 C 104.398438 -22.960938 105.957031 -22.097656 107.875 -21.171875 C 109.800781 -20.253906 111.78125 -19.457031 113.8125 -18.78125 C 115.851562 -18.101562 117.597656 -17.5625 119.046875 -17.15625 C 118.398438 -13.394531 117.457031 -9.613281 116.21875 -5.8125 C 114.976562 -2.019531 113.675781 1.113281 112.3125 3.59375 C 110.800781 6.320312 108.679688 8.046875 105.953125 8.765625 C 103.234375 9.484375 100.351562 8.921875 97.3125 7.078125 C 94.039062 5.078125 90.921875 2.859375 87.953125 0.421875 C 84.992188 -2.015625 82.238281 -4.753906 79.6875 -7.796875 C 76.238281 -4.441406 72.472656 -1.328125 68.390625 1.546875 C 64.316406 4.429688 59.878906 7.035156 55.078125 9.359375 Z M 27.359375 -21.953125 L 31.921875 -21.953125 C 34.722656 -21.953125 36.601562 -22.332031 37.5625 -23.09375 C 38.519531 -23.851562 39.160156 -25.113281 39.484375 -26.875 C 39.878906 -28.71875 40.175781 -30.878906 40.375 -33.359375 C 40.582031 -35.835938 40.6875 -38.4375 40.6875 -41.15625 L 29.515625 -41.15625 C 29.273438 -37.632812 28.992188 -34.273438 28.671875 -31.078125 C 28.359375 -27.878906 27.921875 -24.835938 27.359375 -21.953125 Z M 27.359375 -21.953125 "/></g></g></g></svg>